<svg width="128" height="128" viewBox="0 0 128 128" fill="none" xmlns="http://www.w3.org/2000/svg">
  <rect width="128" height="128" rx="24" fill="url(#gradient)"/>
  <defs>
    <linearGradient id="gradient" x1="0" y1="0" x2="128" y2="128" gradientUnits="userSpaceOnUse">
      <stop offset="0" stop-color="#667eea"/>
      <stop offset="1" stop-color="#764ba2"/>
    </linearGradient>
  </defs>
  <!-- Brain icon -->
  <path d="M64 32C52 32 42 42 42 54C42 58 43 62 45 65C40 68 37 73 37 79C37 87 43 93 51 93C52 93 53 93 54 92C56 95 59 97 63 97H65C69 97 72 95 74 92C75 93 76 93 77 93C85 93 91 87 91 79C91 73 88 68 83 65C85 62 86 58 86 54C86 42 76 32 64 32Z" fill="white"/>
  <!-- Connection nodes -->
  <circle cx="45" cy="75" r="4" fill="white" opacity="0.6"/>
  <circle cx="83" cy="75" r="4" fill="white" opacity="0.6"/>
  <circle cx="64" cy="85" r="4" fill="white" opacity="0.6"/>
</svg>
